<?xml version="1.0" encoding="UTF-8"?>
<svg width="365px" height="369px" viewBox="0 0 365 369" version="1.1" xmlns="http://www.w3.org/2000/svg" xmlns:xlink="http://www.w3.org/1999/xlink">
    <title>Artboard</title>
    <g id="Artboard" stroke="none" stroke-width="1" fill="none" fill-rule="evenodd">
        <g id="logo" fill-rule="nonzero">
            <path d="M225,0 C246.623045,0 266.558802,7.22413521 282.525392,19.3905257 L282.660404,19.2952228 L283.711709,20.3093238 C288.803181,24.317094 293.474849,28.8342762 297.649878,33.7840372 L322.744581,58.0427217 C342.649024,80.7793133 354.306028,97.2492685 357.715592,107.452587 C362.40816,118.701885 365,131.048264 365,144 L365,274 C365,326.467051 322.467051,369 270,369 L140,369 C111.819722,369 86.5052439,356.730052 69.107574,337.241164 L41.489016,311.038831 C29.9633419,297.841274 21.0094816,286.051549 14.6274352,275.669658 C13.3640173,273.67125 12.1731857,271.621125 11.0586267,269.524274 C7.44293912,262.876196 5.00658779,256.875216 3.75095532,251.520571 C1.30919707,243.104332 0,234.205056 0,225 L0,95 C0,42.5329488 42.5329488,0 95,0 L225,0 Z" id="Combined-Shape" fill="#000000"></path>
            <rect id="Rectangle" fill="#FFFFFF" x="87" y="89" width="240" height="240" rx="45"></rect>
            <g id="T" transform="translate(154.000000, 105.000000)" fill="#000000" font-family="Baskerville-Bold, Baskerville" font-size="180" font-weight="bold">
                <text id="F">
                    <tspan x="0" y="161">F</tspan>
                </text>
            </g>
        </g>
    </g>
</svg>